<svg width="128" height="128" viewBox="0 0 128 128" fill="none" xmlns="http://www.w3.org/2000/svg">
<rect width="128" height="128" fill="white"/>
<path fill-rule="evenodd" clip-rule="evenodd" d="M37.3333 15.9995C40.2791 15.9995 42.6671 18.3875 42.6671 21.3333V31.9995L79.9992 31.9995C88.8364 31.9995 96.0004 39.1635 96.0004 48.0008L96.0004 85.3328H106.667C109.612 85.3328 112 87.7208 112 90.6666C112 93.6123 109.612 96.0003 106.667 96.0003H96.0004V106.667C96.0004 109.612 93.6124 112 90.6666 112C87.7209 112 85.3329 109.612 85.3329 106.667V96.0003H48.0008C39.1636 96.0003 31.9996 88.8363 31.9996 79.9991V42.667H21.3333C18.3876 42.667 15.9996 40.279 15.9996 37.3333C15.9996 34.3875 18.3876 31.9995 21.3333 31.9995L31.9996 31.9995V21.3333C31.9996 18.3875 34.3876 15.9995 37.3333 15.9995ZM42.6671 42.667V79.9991C42.6671 82.9449 45.0551 85.3328 48.0008 85.3328H85.3329V48.0008C85.3329 45.055 82.9449 42.667 79.9992 42.667L42.6671 42.667Z" fill="black"/>
</svg>
